<?xml version="1.0" standalone="no"?>
<!DOCTYPE svg PUBLIC "-//W3C//DTD SVG 20010904//EN"
 "http://www.w3.org/TR/2001/REC-SVG-20010904/DTD/svg10.dtd">
<svg version="1.0" xmlns="http://www.w3.org/2000/svg"
 width="751.000000pt" height="494.000000pt" viewBox="0 0 751.000000 494.000000"
 preserveAspectRatio="xMidYMid meet">

<g transform="translate(0.000000,494.000000) scale(0.100000,-0.100000)"
fill="#000000" stroke="none">
<path d="M3620 4908 c-18 -20 -20 -35 -20 -164 0 -139 1 -143 24 -162 18 -14
49 -21 113 -26 102 -8 287 -47 388 -83 250 -88 504 -264 674 -466 526 -627
499 -1520 -64 -2105 -278 -289 -611 -447 -1028 -487 -104 -10 -107 -15 -107
-184 0 -181 4 -187 117 -183 488 18 1006 270 1344 655 160 183 315 453 389
677 179 547 98 1184 -210 1655 -126 192 -328 406 -497 528 -268 192 -565 309
-892 352 -156 21 -206 20 -231 -7z"/>
<path d="M3389 4379 c-566 -83 -1050 -539 -1164 -1098 -97 -475 48 -958 389
-1295 231 -228 534 -368 866 -401 58 -5 69 -4 93 15 l27 21 0 145 c0 173 -3
178 -101 189 -495 56 -871 434 -929 931 -49 421 197 853 592 1039 93 44 231
83 320 92 45 4 77 13 94 25 23 19 24 23 24 162 0 179 -4 187 -93 185 -34 -1
-87 -5 -118 -10z"/>
<path d="M3035 3221 c-12 -5 -27 -16 -34 -25 -32 -38 21 -247 90 -362 109
-179 286 -310 484 -359 100 -25 276 -23 378 4 218 57 399 209 498 416 58 121
87 262 61 302 -15 24 -66 33 -180 33 -149 0 -162 -6 -182 -85 -23 -86 -46
-130 -102 -191 -82 -89 -221 -143 -333 -128 -168 22 -301 138 -346 301 -10 37
-26 74 -34 83 -12 12 -44 15 -148 17 -73 1 -141 -1 -152 -6z"/>
<path d="M7076 768 c-4 -14 -76 -714 -76 -735 0 -9 22 -13 75 -13 l74 0 5 33
c3 17 12 92 19 166 13 125 16 136 41 158 32 27 53 29 85 7 23 -17 24 -19 15
-118 -14 -171 -12 -192 18 -223 22 -21 39 -27 85 -31 71 -5 80 3 84 73 3 40 0
50 -13 53 -25 5 -28 24 -18 114 14 120 12 169 -8 207 -24 48 -59 70 -117 77
-41 5 -59 1 -98 -19 l-48 -25 6 42 c7 55 25 218 25 234 0 8 -22 12 -75 12 -52
0 -77 -4 -79 -12z"/>
<path d="M2718 760 c-73 -22 -116 -78 -127 -165 -6 -49 -6 -50 -43 -53 l-38
-3 0 -59 0 -59 38 -3 37 -3 3 -198 2 -197 70 0 70 0 0 194 c0 168 2 195 16
200 9 3 51 6 95 6 l79 0 0 60 0 59 -92 3 c-93 3 -93 3 -96 30 -7 58 67 87 128
51 28 -16 30 -16 70 12 53 37 56 42 33 67 -47 54 -166 82 -245 58z"/>
<path d="M10 403 c0 -256 1 -270 21 -303 38 -61 91 -88 180 -89 43 -1 69 5
109 26 78 41 84 57 35 99 -46 39 -53 40 -93 17 -29 -16 -32 -16 -66 -1 -44 21
-48 36 -44 163 l3 100 88 3 87 3 0 59 0 60 -90 0 -89 0 -3 63 -3 62 -67 3 -68
3 0 -268z"/>
<path d="M5655 595 l-7 -75 -43 0 c-41 0 -43 -1 -49 -37 -12 -78 -10 -83 35
-83 l42 0 -6 -37 c-4 -21 -9 -79 -13 -129 -8 -110 4 -154 52 -190 57 -44 199
-44 258 -1 18 13 18 16 -8 72 -20 45 -29 56 -38 47 -19 -19 -73 -14 -93 8 -16
17 -17 31 -11 117 4 54 10 101 12 105 3 4 41 8 85 8 l79 0 0 29 c0 16 3 43 6
60 l7 31 -83 0 -82 0 7 75 7 75 -75 0 -75 0 -7 -75z"/>
<path d="M631 536 c-51 -18 -111 -74 -135 -125 -18 -40 -21 -69 -24 -228 l-4
-183 71 0 71 0 0 153 c0 83 5 170 10 192 16 71 72 95 125 53 l27 -21 54 26
c30 15 54 33 54 41 0 23 -51 78 -87 92 -39 17 -116 17 -162 0z"/>
<path d="M1085 535 c-39 -13 -115 -86 -115 -109 0 -6 24 -24 54 -40 l54 -29
38 32 c32 29 42 33 77 28 48 -7 57 -15 60 -53 l2 -29 -95 -6 c-103 -6 -145
-21 -179 -65 -65 -83 -14 -213 96 -243 83 -23 200 -9 257 32 50 35 66 87 66
217 0 63 -5 132 -11 153 -14 52 -60 101 -107 115 -52 16 -148 14 -197 -3z
m175 -335 c0 -36 -35 -60 -89 -60 -58 0 -87 20 -71 50 13 25 25 28 98 29 56 1
62 -1 62 -19z"/>
<path d="M1618 540 c-45 -13 -87 -49 -110 -93 -20 -38 -23 -60 -26 -234 l-4
-193 71 0 71 0 0 155 c0 168 10 213 50 235 30 16 86 4 105 -23 12 -17 15 -55
15 -194 l0 -173 70 0 70 0 0 178 c0 151 -3 183 -19 217 -23 49 -74 99 -123
119 -40 17 -125 20 -170 6z"/>
<path d="M2125 539 c-64 -24 -105 -82 -105 -149 0 -92 47 -138 173 -171 86
-22 110 -45 75 -73 -30 -24 -100 -17 -133 14 -19 18 -31 21 -59 16 -19 -4 -45
-15 -58 -25 l-23 -19 31 -39 c52 -64 86 -78 189 -78 73 0 97 4 125 21 53 31
80 77 80 138 0 92 -37 129 -174 170 -76 23 -98 44 -76 71 19 23 84 14 116 -16
l24 -23 55 27 c30 15 55 31 55 36 0 19 -44 63 -83 83 -49 25 -165 34 -212 17z"/>
<path d="M3146 536 c-86 -32 -135 -110 -143 -226 -13 -188 77 -300 242 -300
119 0 199 57 230 165 40 136 -2 289 -93 342 -55 33 -174 42 -236 19z m164
-144 c49 -49 52 -166 5 -220 -19 -22 -32 -27 -70 -27 -38 0 -51 5 -70 27 -46
54 -41 182 10 226 38 32 89 30 125 -6z"/>
<path d="M3712 524 c-29 -14 -64 -40 -77 -58 -50 -65 -55 -93 -55 -286 l0
-180 70 0 70 0 0 181 0 181 29 29 c35 35 68 37 106 7 l27 -21 54 26 c30 15 54
30 54 34 0 5 -9 23 -20 41 -44 71 -164 93 -258 46z"/>
<path d="M4933 526 c-90 -43 -131 -139 -120 -282 11 -145 80 -221 212 -232 38
-3 83 0 110 8 48 13 135 82 135 106 0 8 -24 25 -52 38 -52 23 -53 23 -74 4
-65 -58 -178 -33 -186 42 l-3 25 160 5 160 5 0 80 c-1 69 -4 87 -28 127 -40
68 -83 91 -181 95 -70 4 -88 1 -133 -21z m184 -128 c43 -40 31 -48 -67 -48
-49 0 -90 4 -90 9 0 40 54 75 105 66 16 -3 39 -15 52 -27z"/>
<path d="M4155 526 c-37 -17 -80 -62 -94 -99 -7 -17 -11 -110 -11 -223 l0
-195 68 3 67 3 5 181 c5 196 10 214 60 214 54 0 59 -19 62 -216 l3 -179 64 -3
c45 -2 67 1 72 10 5 7 9 90 9 184 0 153 2 173 18 187 24 22 65 22 85 -1 14
-15 17 -48 19 -198 l3 -179 68 -3 67 -3 0 199 c0 188 -1 201 -23 242 -32 60
-89 90 -171 90 -34 -1 -72 -7 -86 -15 -14 -8 -38 -14 -55 -14 -16 0 -41 6 -55
14 -32 18 -135 19 -175 1z"/>
<path d="M6193 531 c-109 -28 -184 -116 -204 -243 -12 -74 2 -158 33 -204 71
-103 261 -111 369 -15 l44 39 -44 39 c-43 38 -45 39 -63 21 -24 -24 -61 -38
-98 -38 -42 0 -59 9 -76 41 -17 35 -17 35 74 43 79 7 139 33 175 75 33 40 41
69 34 127 -8 74 -56 111 -154 119 -32 2 -72 0 -90 -4z m97 -141 c22 -41 -37
-90 -110 -90 -34 0 -36 8 -15 50 30 58 103 81 125 40z"/>
<path d="M6699 534 c-15 -3 -51 -20 -80 -37 -45 -27 -59 -43 -89 -101 -32 -64
-35 -76 -35 -160 0 -78 4 -97 25 -134 68 -119 264 -135 373 -31 l42 39 -45 39
-45 39 -28 -24 c-36 -31 -70 -39 -110 -27 -45 13 -59 45 -54 126 5 75 23 110
70 137 24 13 30 13 55 -1 23 -13 27 -21 26 -57 l-1 -42 64 0 c59 0 64 2 73 26
27 70 -1 154 -61 185 -39 19 -131 31 -180 23z"/>
<path d="M5363 180 c-48 -20 -60 -110 -20 -148 32 -30 87 -29 115 1 28 29 30
95 5 126 -21 24 -68 35 -100 21z"/>
</g>
</svg>
